<?xml version="1.0" encoding="UTF-8"?>
<svg id="elementeer" xmlns="http://www.w3.org/2000/svg" viewBox="0 0 1270.57 192.15">
  <defs>
    <style>
      .cls-1 {
        fill: #6a35ff;
      }

      .cls-2 {
        fill: #141722;
      }
    </style>
  </defs>
  <path class="cls-2" d="M206.43,165.5V0h26.25v165.5h-26.25Z"/>
  <path class="cls-2" d="M309.67,168.51c-12.65,0-23.64-2.63-32.98-7.88-9.34-5.25-16.58-12.63-21.73-22.14-5.15-9.5-7.72-20.36-7.72-32.57,0-7.57.95-14.52,2.87-20.86,1.91-6.33,4.67-12.09,8.27-17.27,3.6-5.18,7.9-9.62,12.9-13.33,5-3.71,10.73-6.49,17.21-8.34,6.47-1.85,13.6-2.78,21.4-2.78,8.68,0,16.69,1.24,24.04,3.71,7.35,2.47,13.71,6.45,19.08,11.94,5.37,5.49,9.49,12.6,12.35,21.32,2.87,8.73,4.08,19.43,3.64,32.1h-104.34v-17.38h78.53c-.59-5.41-1.73-10.08-3.42-14.02-1.69-3.94-3.97-7.22-6.84-9.85-2.87-2.62-6.25-4.56-10.15-5.79-3.9-1.23-8.27-1.85-13.13-1.85s-9.49.66-13.46,1.97c-3.97,1.32-7.39,3.25-10.26,5.79-2.87,2.55-5.22,5.56-7.06,9.04-1.84,3.48-3.2,7.38-4.08,11.71-.88,4.33-1.32,8.96-1.32,13.91,0,8.04,1.29,15.3,3.86,21.79,2.57,6.49,6.58,11.55,12.02,15.18,5.44,3.63,12.35,5.45,20.74,5.45,7.94,0,14.56-1.43,19.85-4.29,5.29-2.86,9.04-6.68,11.25-11.47h26.69c-1.47,6.34-4.6,12.25-9.38,17.73-4.78,5.49-11.22,9.89-19.3,13.21-8.09,3.32-17.94,4.98-29.56,4.98Z"/>
  <path class="cls-2" d="M383.56,165.5V46.36h26.47v27.81l-2.65-2.78c2.5-6.64,5.74-12.05,9.71-16.23,3.97-4.17,8.6-7.19,13.9-9.04,5.29-1.85,10.81-2.78,16.54-2.78,6.18,0,11.84,1.12,16.99,3.36,5.15,2.24,9.49,5.64,13.02,10.2,3.53,4.56,5.81,10.01,6.84,16.34l-3.53.23c2.06-6.64,5.07-12.24,9.04-16.81,3.97-4.56,8.75-7.92,14.34-10.08,5.59-2.16,11.62-3.24,18.09-3.24,8.38,0,15.62,1.85,21.73,5.56,6.1,3.71,10.77,9.08,14.01,16.11,3.23,7.03,4.85,15.49,4.85,25.38v75.1h-26.25v-70.7c0-6.64-.92-12.17-2.76-16.57-1.84-4.4-4.45-7.69-7.83-9.85-3.38-2.16-7.5-3.24-12.35-3.24-5.29,0-10,1.39-14.12,4.17-4.12,2.78-7.32,6.69-9.6,11.71-2.28,5.02-3.42,10.78-3.42,17.27v67.22h-26.47v-70.7c0-10.04-2.02-17.5-6.07-22.37-4.05-4.87-9.6-7.3-16.66-7.3-5.15,0-9.78,1.39-13.9,4.17-4.12,2.78-7.39,6.69-9.82,11.71-2.43,5.02-3.64,10.78-3.64,17.27v67.22h-26.47Z"/>
  <path class="cls-2" d="M638.79,168.51c-12.65,0-23.64-2.63-32.98-7.88-9.34-5.25-16.58-12.63-21.73-22.14-5.15-9.5-7.72-20.36-7.72-32.57,0-7.57.95-14.52,2.87-20.86,1.91-6.33,4.67-12.09,8.27-17.27,3.6-5.18,7.9-9.62,12.9-13.33,5-3.71,10.73-6.49,17.21-8.34,6.47-1.85,13.6-2.78,21.4-2.78,8.68,0,16.69,1.24,24.05,3.71,7.35,2.47,13.71,6.45,19.08,11.94,5.37,5.49,9.49,12.6,12.35,21.32,2.87,8.73,4.08,19.43,3.64,32.1h-104.34v-17.38h78.54c-.59-5.41-1.73-10.08-3.42-14.02-1.69-3.94-3.97-7.22-6.84-9.85-2.87-2.62-6.25-4.56-10.15-5.79-3.9-1.23-8.27-1.85-13.12-1.85s-9.49.66-13.46,1.97c-3.97,1.32-7.39,3.25-10.26,5.79-2.87,2.55-5.22,5.56-7.06,9.04-1.84,3.48-3.2,7.38-4.08,11.71-.88,4.33-1.32,8.96-1.32,13.91,0,8.04,1.28,15.3,3.86,21.79,2.57,6.49,6.58,11.55,12.02,15.18,5.44,3.63,12.35,5.45,20.73,5.45,7.94,0,14.56-1.43,19.86-4.29,5.29-2.86,9.04-6.68,11.25-11.47h26.7c-1.47,6.34-4.6,12.25-9.38,17.73-4.78,5.49-11.22,9.89-19.3,13.21-8.09,3.32-17.94,4.98-29.56,4.98Z"/>
  <path class="cls-2" d="M712.69,165.5V46.36h26.47v30.6l-2.43-3.25c2.65-6.95,6.21-12.67,10.7-17.15,4.48-4.48,9.78-7.8,15.88-9.97,6.1-2.16,12.76-3.24,19.96-3.24s13.68,1.12,19.41,3.36c5.74,2.24,10.59,5.49,14.56,9.74,3.97,4.25,6.98,9.58,9.04,15.99,2.06,6.41,3.09,13.72,3.09,21.9v71.16h-26.25v-66.99c0-7.11-1.18-13.13-3.53-18.08-2.35-4.94-5.7-8.73-10.04-11.36-4.34-2.63-9.74-3.94-16.21-3.94s-12.54,1.55-17.76,4.64c-5.22,3.09-9.27,7.38-12.13,12.87-2.87,5.49-4.3,11.71-4.3,18.66v64.21h-26.47Z"/>
  <path class="cls-2" d="M837.99,66.99v-20.63h27.13v20.63h-27.13ZM895.12,165.5c-10.29,0-18.46-2.86-24.49-8.58-6.03-5.72-9.04-13.83-9.04-24.34V14.14h26.25v113.58c0,5.56,1.51,9.81,4.52,12.75,3.01,2.94,6.95,4.4,11.8,4.4h15.88v20.63h-24.93ZM884.31,66.99v-20.63h35.74v20.63h-35.74Z"/>
  <path class="cls-2" d="M988.22,168.51c-12.65,0-23.64-2.63-32.98-7.88-9.34-5.25-16.58-12.63-21.73-22.14-5.15-9.5-7.72-20.36-7.72-32.57,0-7.57.95-14.52,2.87-20.86,1.91-6.33,4.67-12.09,8.27-17.27,3.6-5.18,7.9-9.62,12.91-13.33,5-3.71,10.73-6.49,17.21-8.34,6.47-1.85,13.6-2.78,21.4-2.78,8.68,0,16.69,1.24,24.05,3.71,7.35,2.47,13.71,6.45,19.08,11.94,5.37,5.49,9.49,12.6,12.35,21.32,2.87,8.73,4.08,19.43,3.64,32.1h-104.34v-17.38h78.53c-.59-5.41-1.73-10.08-3.42-14.02-1.69-3.94-3.97-7.22-6.84-9.85-2.87-2.62-6.25-4.56-10.15-5.79-3.9-1.23-8.27-1.85-13.12-1.85s-9.49.66-13.46,1.97c-3.97,1.32-7.39,3.25-10.26,5.79-2.87,2.55-5.22,5.56-7.06,9.04-1.84,3.48-3.2,7.38-4.08,11.71-.88,4.33-1.32,8.96-1.32,13.91,0,8.04,1.29,15.3,3.86,21.79,2.57,6.49,6.58,11.55,12.02,15.18,5.44,3.63,12.35,5.45,20.74,5.45,7.94,0,14.56-1.43,19.85-4.29,5.29-2.86,9.05-6.68,11.25-11.47h26.69c-1.47,6.34-4.6,12.25-9.38,17.73-4.78,5.49-11.22,9.89-19.3,13.21-8.09,3.32-17.94,4.98-29.56,4.98Z"/>
  <path class="cls-2" d="M1124.32,168.51c-12.65,0-23.64-2.63-32.98-7.88-9.34-5.25-16.58-12.63-21.73-22.14-5.15-9.5-7.72-20.36-7.72-32.57,0-7.57.95-14.52,2.87-20.86,1.91-6.33,4.67-12.09,8.27-17.27,3.6-5.18,7.9-9.62,12.91-13.33,5-3.71,10.73-6.49,17.21-8.34,6.47-1.85,13.6-2.78,21.4-2.78,8.68,0,16.69,1.24,24.05,3.71,7.35,2.47,13.71,6.45,19.08,11.94,5.37,5.49,9.49,12.6,12.35,21.32,2.87,8.73,4.08,19.43,3.64,32.1h-104.34v-17.38h78.53c-.59-5.41-1.73-10.08-3.42-14.02-1.69-3.94-3.97-7.22-6.84-9.85-2.87-2.62-6.25-4.56-10.15-5.79-3.9-1.23-8.27-1.85-13.12-1.85s-9.49.66-13.46,1.97c-3.97,1.32-7.39,3.25-10.26,5.79-2.87,2.55-5.22,5.56-7.06,9.04-1.84,3.48-3.2,7.38-4.08,11.71-.88,4.33-1.32,8.96-1.32,13.91,0,8.04,1.29,15.3,3.86,21.79,2.57,6.49,6.58,11.55,12.02,15.18,5.44,3.63,12.35,5.45,20.74,5.45,7.94,0,14.56-1.43,19.85-4.29,5.29-2.86,9.05-6.68,11.25-11.47h26.69c-1.47,6.34-4.6,12.25-9.38,17.73-4.78,5.49-11.22,9.89-19.3,13.21-8.09,3.32-17.94,4.98-29.56,4.98Z"/>
  <path class="cls-2" d="M1198.22,165.5V46.36h26.47v36.85l-1.98-.93c1.91-8.96,4.63-16.07,8.16-21.33,3.53-5.25,7.83-9,12.91-11.24,5.07-2.24,10.92-3.36,17.54-3.36h9.26v25.5h-11.47c-7.06,0-13.16,1.7-18.31,5.1-5.15,3.4-9.12,8.19-11.91,14.37-2.8,6.18-4.19,13.29-4.19,21.32v52.85h-26.47Z"/>
  <circle class="cls-2" cx="92.05" cy="100.1" r="92.05"/>
  <path class="cls-1" d="M154.69,95.31c.28,7.41-1.32,15.28-4.78,23.6-3.47,8.32-9.27,16.78-17.4,25.35-8.86,9.34-18.29,15.59-28.3,18.76-10.01,3.18-19.96,3.29-29.85.36-9.89-2.93-18.86-8.72-26.93-17.36-5-5.36-8.93-10.99-11.78-16.89-2.85-5.9-4.72-12.01-5.62-18.34-.9-6.32-.82-12.65.23-18.96,1.05-6.32,3.23-12.52,6.53-18.61,3.3-6.09,7.68-12.01,13.14-17.76,6.08-6.4,12.51-11.44,19.29-15.12,6.78-3.68,13.87-5.55,21.25-5.63,7.38-.07,14.97,1.92,22.75,5.98,7.78,4.07,15.71,10.75,23.77,20.05l-73.06,77.02-11.49-12.31,54.99-57.97c-3.99-3.39-7.88-5.86-11.66-7.41-3.79-1.54-7.55-2.18-11.3-1.93-3.74.26-7.39,1.39-10.94,3.39-3.55,2-7.02,4.79-10.42,8.38-3.5,3.69-6.21,7.47-8.12,11.33-1.91,3.86-3.03,7.75-3.35,11.68-.32,3.92.02,7.79,1.03,11.61,1.01,3.82,2.64,7.59,4.88,11.3,2.24,3.72,5,7.33,8.27,10.83,5.31,5.69,11.01,9.89,17.11,12.58,6.09,2.7,12.25,3.33,18.46,1.88,6.21-1.44,12.25-5.26,18.12-11.45,5.56-5.86,9.25-11.76,11.07-17.69,1.82-5.93,1.92-11.41.29-16.43"/>
</svg>